<?xml version="1.0" encoding="utf-8"?>
<!-- Generator: Adobe Illustrator 24.0.0, SVG Export Plug-In . SVG Version: 6.00 Build 0)  -->
<svg version="1.1" id="Layer_1" xmlns="http://www.w3.org/2000/svg" xmlns:xlink="http://www.w3.org/1999/xlink" x="0px" y="0px"
	 viewBox="0 0 522.7 435.4" style="enable-background:new 0 0 522.7 435.4;" xml:space="preserve">
<style type="text/css">
	.st0{opacity:0.24;fill:#FFFFFF;enable-background:new    ;}
	.st1{fill:url(#SVGID_1_);}
	.st2{fill:#FFFFFF;}
	.st3{fill:url(#SVGID_2_);}
	.st4{fill:url(#SVGID_3_);}
	.st5{fill:url(#SVGID_4_);}
	.st6{fill:url(#SVGID_5_);}
	.st7{fill:url(#SVGID_6_);}
	.st8{fill:url(#SVGID_7_);}
	.st9{fill:url(#SVGID_8_);}
	.st10{fill:url(#SVGID_9_);}
	.st11{fill:url(#SVGID_10_);}
	.st12{fill:url(#SVGID_11_);}
	.st13{fill:url(#SVGID_12_);}
	.st14{fill:url(#SVGID_13_);}
	.st15{fill:url(#SVGID_14_);}
	.st16{fill:url(#SVGID_15_);}
	.st17{fill:url(#SVGID_16_);}
	.st18{fill:url(#SVGID_17_);}
	.st19{fill:url(#SVGID_18_);}
	.st20{fill:url(#SVGID_19_);}
	.st21{fill:url(#SVGID_20_);}
	.st22{fill:url(#SVGID_21_);}
	.st23{fill:url(#SVGID_22_);}
	.st24{fill:url(#SVGID_23_);}
</style>
<title>Inbox Message Sent</title>
<path class="st0" d="M167.4,105.2c-12.5,2.2-25.1,4.7-36.6,10c-8.6,3.9-16.5,9.3-24.3,14.8c-23.4,16.4-47.4,35.2-57.2,62.1
	c-14.2,39,5.8,82.2,44.9,96.4c8,2.9,16.5,4.5,25,4.6c-28.7-23.3-33-65.4-9.8-94.1c1.1-1.4,2.3-2.7,3.5-3.9
	c7.5-7.9,16.9-13.9,26.7-18.7c31.4-15.3,67.2-18.9,102.1-17.5s48.2-6.9,83-4c-7.8-19.3,3.9-23.7-7.1-41.4
	c-16.2-26-33.8-21.6-61.5-19.2C226.4,97,196.8,100.1,167.4,105.2z"/>
<linearGradient id="SVGID_1_" gradientUnits="userSpaceOnUse" x1="214.0879" y1="663.2662" x2="166.4279" y2="421.2062" gradientTransform="matrix(1 0 0 1 -19.61 -411.13)">
	<stop  offset="0" style="stop-color:#FFFFFF;stop-opacity:0"/>
	<stop  offset="0.95" style="stop-color:#FFFFFF"/>
</linearGradient>
<path class="st1" d="M161.8,100.8c-12.5,2.2-25.1,4.7-36.6,10c-8.6,3.9-16.5,9.3-24.3,14.8c-23.4,16.4-47.4,35.2-57.2,62.1
	c-14.2,39,5.8,82.2,44.9,96.4c8,2.9,16.4,4.5,25,4.6c-28.7-23.3-33-65.4-9.7-94.1c1.1-1.3,2.2-2.6,3.4-3.9
	c7.5-7.9,16.9-13.9,26.7-18.7c31.4-15.3,67.3-18.9,102.1-17.5s55.1,5.1,89.9,8c-7.8-19.3-3-35.8-14-53.4
	c-16.2-26-33.8-21.6-61.5-19.2C220.8,92.6,191.1,95.7,161.8,100.8z"/>
<rect x="132.9" y="289.7" class="st2" width="13.6" height="84"/>
<linearGradient id="SVGID_2_" gradientUnits="userSpaceOnUse" x1="140.0529" y1="768.6696" x2="139.0329" y2="679.1495" gradientTransform="matrix(1 0 0 1 0 -406)">
	<stop  offset="0" style="stop-color:#010101;stop-opacity:0"/>
	<stop  offset="0.95" style="stop-color:#010101"/>
</linearGradient>
<rect x="132.9" y="289.7" class="st3" width="13.6" height="84"/>
<path class="st2" d="M178.5,263.9v33.3H85.2v-33.3c0-9.6,7.8-17.3,17.3-17.3l0,0h58.6C170.7,246.6,178.5,254.3,178.5,263.9z"/>
<linearGradient id="SVGID_3_" gradientUnits="userSpaceOnUse" x1="87.6" y1="679.2499" x2="117.64" y2="679.2499" gradientTransform="matrix(1 0 0 1 0 -406)">
	<stop  offset="0" style="stop-color:#010101;stop-opacity:0"/>
	<stop  offset="0.95" style="stop-color:#010101"/>
</linearGradient>
<path class="st4" d="M102.6,249.5L102.6,249.5c8.3,0,15,6.7,15,15V297l0,0h-30l0,0v-32.5C87.6,256.2,94.3,249.5,102.6,249.5
	L102.6,249.5z"/>
<linearGradient id="SVGID_4_" gradientUnits="userSpaceOnUse" x1="164.1444" y1="656.9709" x2="158.6943" y2="749.5308" gradientTransform="matrix(1 0 0 1 -19.61 -411.13)">
	<stop  offset="0" style="stop-color:#010101;stop-opacity:0"/>
	<stop  offset="0.95" style="stop-color:#010101"/>
</linearGradient>
<path class="st5" d="M178.5,263.9v33.3H121V262c-1.7-9.2-8.2-13.4-13.5-15.4h53.6C170.7,246.6,178.5,254.3,178.5,263.9z"/>
<path class="st2" d="M57.6,292.4h61c1.3,0,2.4,1.1,2.4,2.4l0,0c0,1.3-1.1,2.4-2.4,2.4h-61c-1.3,0-2.4-1.1-2.4-2.4l0,0
	C55.2,293.5,56.3,292.4,57.6,292.4z"/>
<linearGradient id="SVGID_5_" gradientUnits="userSpaceOnUse" x1="87.7642" y1="695.0815" x2="88.4442" y2="706.6615" gradientTransform="matrix(1 0 0 1 0 -406)">
	<stop  offset="0" style="stop-color:#010101;stop-opacity:0"/>
	<stop  offset="0.95" style="stop-color:#010101"/>
</linearGradient>
<path class="st6" d="M57.6,292.4h61c1.3,0,2.4,1.1,2.4,2.4l0,0c0,1.3-1.1,2.4-2.4,2.4h-61c-1.3,0-2.4-1.1-2.4-2.4l0,0
	C55.2,293.5,56.3,292.4,57.6,292.4z"/>
<path class="st0" d="M103.6,366.3c-7.9,1.4-15.8,3.2-23.8,4c-5.2,0.5-10.9,0.8-14.7,4.4c-0.9,0.8-1.5,1.8-1.7,3
	c-0.2,2.5,2.4,4.2,4.7,5.2c6.8,2.7,14.2,3.5,21.6,3.9c11.9,0.8,23.9,0.8,35.8,0.8h35.6c10.5,0,22.2-0.4,29.7-7.8
	c1.6-1.4,2.7-3.2,3.1-5.3c0.4-3.3-2.1-6.5-5.2-7.9c-5.3-2.4-13.3-1.9-19-2.6c-7.6-0.8-15.1-1.2-22.7-1.3
	C132.5,362.5,117.9,363.7,103.6,366.3z"/>
<path class="st2" d="M153.5,269c-0.1,0.4-0.5,1.7-0.6,2.2l-1.3,4.7c-0.1,0.2-0.1,0.4-0.1,0.6c0,0.3,0.2,0.5,0.4,0.5h0.1
	c0.5,0,1-0.2,1.3-0.5c1.1-1,1.8-2.5,1.7-4c0-1.9-0.9-3.6-2.4-4.6c-1.2-0.6-2.5-0.9-3.8-0.9c-4.5,0-7.6,3-7.6,7.2s2.8,6.7,7.1,6.7
	c1.1,0,2.2-0.2,3.2-0.5c0.8-0.3,1.6-0.6,2.4-1.1l1.3,1.9c-0.8,0.5-1.7,0.9-2.6,1.2c-1.5,0.4-3,0.7-4.5,0.7c-2.6,0.1-5.1-0.8-7-2.5
	c-1.6-1.7-2.5-3.9-2.5-6.3c-0.1-2.5,0.9-4.9,2.6-6.6c2.1-2,4.9-3.1,7.8-2.9c4.9,0,8.5,3.2,8.5,7.6c0,1.9-0.7,3.7-2,5.1
	c-1,1.1-2.5,1.7-4,1.7c-0.7,0-1.4-0.3-1.8-0.8c-0.1-0.2-0.2-0.4-0.2-0.6c-0.7,0.9-1.7,1.4-2.9,1.3c-2.1,0-3.4-1.6-3.4-4
	c0-3.6,2.4-6.5,5.2-6.5c1-0.1,1.9,0.3,2.4,1.2l0.2-0.8L153.5,269z M149.1,275.3c0.5-1,0.8-2.1,0.8-3.3c0-0.9-0.5-1.5-1.2-1.5
	c-0.9,0.1-1.7,0.7-2.1,1.5c-0.5,1-0.8,2.1-0.9,3.2c0,1.1,0.4,1.7,1.2,1.7S148.6,276.4,149.1,275.3z"/>
<polygon class="st2" points="456.1,117.6 326,162.6 306.1,119.7 "/>
<linearGradient id="SVGID_6_" gradientUnits="userSpaceOnUse" x1="375.1313" y1="565.0802" x2="389.7112" y2="466.3202" gradientTransform="matrix(1 0 0 1 0 -406)">
	<stop  offset="0" style="stop-color:#FFFFFF;stop-opacity:0"/>
	<stop  offset="0.95" style="stop-color:#FFFFFF"/>
</linearGradient>
<polygon class="st7" points="456.1,117.6 326,162.6 306.1,119.7 "/>
<linearGradient id="SVGID_7_" gradientUnits="userSpaceOnUse" x1="380.1147" y1="538.6204" x2="386.7047" y2="445.1804" gradientTransform="matrix(1 0 0 1 0 -406)">
	<stop  offset="0" style="stop-color:#010101;stop-opacity:0"/>
	<stop  offset="0.95" style="stop-color:#010101"/>
</linearGradient>
<polygon class="st8" points="312.7,134.5 426.1,127 456.1,117.6 306.1,119.7 "/>
<polygon class="st2" points="279.8,72.1 464.5,119 303.8,99.8 "/>
<polygon class="st2" points="196.1,127.1 303.8,99.8 464.5,119 "/>
<linearGradient id="SVGID_8_" gradientUnits="userSpaceOnUse" x1="376.3882" y1="469.5811" x2="366.0382" y2="547.6511" gradientTransform="matrix(1 0 0 1 0 -406)">
	<stop  offset="0" style="stop-color:#FFFFFF;stop-opacity:0"/>
	<stop  offset="0.95" style="stop-color:#FFFFFF"/>
</linearGradient>
<polygon class="st9" points="279.8,72.1 464.5,119 303.8,99.8 "/>
<rect x="196.2" y="135.8" transform="matrix(3.053954e-02 -0.9995 0.9995 3.053954e-02 46.7445 358.3996)" class="st2" width="23.9" height="38.7"/>
<linearGradient id="SVGID_9_" gradientUnits="userSpaceOnUse" x1="170.8705" y1="538.8145" x2="169.6104" y2="624.1046" gradientTransform="matrix(0.9911 0.1333 -0.1333 0.9911 120.802 -470.0776)">
	<stop  offset="0" style="stop-color:#FFFFFF;stop-opacity:0"/>
	<stop  offset="0.95" style="stop-color:#FFFFFF"/>
</linearGradient>
<polygon class="st10" points="227.1,167.6 188.4,166.5 189.1,142.6 228.6,143.5 "/>
<linearGradient id="SVGID_10_" gradientUnits="userSpaceOnUse" x1="420.7157" y1="-630.978" x2="419.4558" y2="-545.698" gradientTransform="matrix(0.7619 -0.6477 0.6477 0.7619 -749.7405 -371.8495)">
	<stop  offset="0" style="stop-color:#FFFFFF;stop-opacity:0"/>
	<stop  offset="0.95" style="stop-color:#FFFFFF"/>
</linearGradient>
<polygon class="st11" points="189.1,142.6 207.9,162.9 228,144.1 "/>
<rect x="123.8" y="109.3" transform="matrix(0.4315 -0.9021 0.9021 0.4315 -38.8616 195.5966)" class="st2" width="23.9" height="38.7"/>
<linearGradient id="SVGID_11_" gradientUnits="userSpaceOnUse" x1="-52.613" y1="681.4059" x2="-53.873" y2="766.686" gradientTransform="matrix(0.8529 0.5221 -0.5221 0.8529 573.3199 -483.5118)">
	<stop  offset="0" style="stop-color:#FFFFFF;stop-opacity:0"/>
	<stop  offset="0.95" style="stop-color:#FFFFFF"/>
</linearGradient>
<polygon class="st12" points="148,147.8 113.1,131 123.4,109.5 159.1,126.3 "/>
<linearGradient id="SVGID_12_" gradientUnits="userSpaceOnUse" x1="165.124" y1="-701.7512" x2="163.874" y2="-616.4612" gradientTransform="matrix(0.9586 -0.2849 0.2849 0.9586 -262.8325 -745.1693)">
	<stop  offset="0" style="stop-color:#FFFFFF;stop-opacity:0"/>
	<stop  offset="0.95" style="stop-color:#FFFFFF"/>
</linearGradient>
<polygon class="st13" points="123.4,109.5 132.4,135.7 158.3,126.6 "/>
<rect x="82" y="184.5" transform="matrix(0.9451 -0.3269 0.3269 0.9451 -57.6775 41.5229)" class="st2" width="25.4" height="15.7"/>
<linearGradient id="SVGID_13_" gradientUnits="userSpaceOnUse" x1="220.4281" y1="523.768" x2="219.6081" y2="579.778" gradientTransform="matrix(0.9737 -0.2278 0.2278 0.9737 -248.9374 -311.7741)">
	<stop  offset="0" style="stop-color:#FFFFFF;stop-opacity:0"/>
	<stop  offset="0.95" style="stop-color:#FFFFFF"/>
</linearGradient>
<polygon class="st14" points="109.3,195.6 85.2,203.9 80.1,189.1 104.6,180.5 "/>
<linearGradient id="SVGID_14_" gradientUnits="userSpaceOnUse" x1="472.006" y1="-52.3919" x2="471.176" y2="3.6181" gradientTransform="matrix(0.4819 -0.8762 0.8762 0.4819 -1027.6886 89.537)">
	<stop  offset="0" style="stop-color:#FFFFFF;stop-opacity:0"/>
	<stop  offset="0.95" style="stop-color:#FFFFFF"/>
</linearGradient>
<polygon class="st15" points="80.1,189.1 96.4,197.2 104.3,181 "/>
<rect x="43.7" y="168.7" transform="matrix(0.9451 -0.3269 0.3269 0.9451 -54.5681 28.0292)" class="st2" width="24.8" height="15.3"/>
<linearGradient id="SVGID_15_" gradientUnits="userSpaceOnUse" x1="186.4799" y1="500.4379" x2="185.6699" y2="555.1279" gradientTransform="matrix(0.9737 -0.2278 0.2278 0.9737 -248.9374 -311.7741)">
	<stop  offset="0" style="stop-color:#FFFFFF;stop-opacity:0"/>
	<stop  offset="0.95" style="stop-color:#FFFFFF"/>
</linearGradient>
<polygon class="st16" points="70.3,179.5 46.9,187.6 41.9,173.2 65.7,164.7 "/>
<linearGradient id="SVGID_16_" gradientUnits="userSpaceOnUse" x1="466.7652" y1="-68.4947" x2="465.9652" y2="-13.8047" gradientTransform="matrix(0.4819 -0.8762 0.8762 0.4819 -1027.6886 89.537)">
	<stop  offset="0" style="stop-color:#FFFFFF;stop-opacity:0"/>
	<stop  offset="0.95" style="stop-color:#FFFFFF"/>
</linearGradient>
<polygon class="st17" points="41.9,173.2 57.8,181.1 65.5,165.2 "/>
<rect x="55" y="226.7" transform="matrix(0.309 -0.9511 0.9511 0.309 -182.6468 221.191)" class="st2" width="11.8" height="19.1"/>
<linearGradient id="SVGID_17_" gradientUnits="userSpaceOnUse" x1="-53.087" y1="780.7244" x2="-53.7069" y2="822.8644" gradientTransform="matrix(0.9142 0.4053 -0.4053 0.9142 440.151 -486.969)">
	<stop  offset="0" style="stop-color:#FFFFFF;stop-opacity:0"/>
	<stop  offset="0.95" style="stop-color:#FFFFFF"/>
</linearGradient>
<polygon class="st18" points="68.2,244.8 50,238.9 53.6,227.7 72.2,233.6 "/>
<linearGradient id="SVGID_18_" gradientUnits="userSpaceOnUse" x1="101.179" y1="177.5556" x2="100.559" y2="219.6955" gradientTransform="matrix(0.9128 -0.4085 0.4085 0.9128 -423.0963 -636.3254)">
	<stop  offset="0" style="stop-color:#FFFFFF;stop-opacity:0"/>
	<stop  offset="0.95" style="stop-color:#FFFFFF"/>
</linearGradient>
<polygon class="st19" points="53.6,227.7 59.8,239.9 71.8,233.8 "/>
<rect x="205.2" y="81.3" transform="matrix(0.9306 -0.366 0.366 0.9306 -18.224 87.8125)" class="st2" width="34.6" height="21.3"/>
<linearGradient id="SVGID_19_" gradientUnits="userSpaceOnUse" x1="379.9491" y1="422.6865" x2="378.8291" y2="498.8865" gradientTransform="matrix(0.9634 -0.2682 0.2682 0.9634 -272.6068 -273.094)">
	<stop  offset="0" style="stop-color:#FFFFFF;stop-opacity:0"/>
	<stop  offset="0.95" style="stop-color:#FFFFFF"/>
</linearGradient>
<polygon class="st20" points="242.5,95.6 210.4,108.2 202.5,88.4 235.2,75.2 "/>
<linearGradient id="SVGID_20_" gradientUnits="userSpaceOnUse" x1="648.9664" y1="-382.0141" x2="647.8464" y2="-305.814" gradientTransform="matrix(0.4449 -0.8956 0.8956 0.4449 -1034.0033 160.4088)">
	<stop  offset="0" style="stop-color:#FFFFFF;stop-opacity:0"/>
	<stop  offset="0.95" style="stop-color:#FFFFFF"/>
</linearGradient>
<polygon class="st21" points="202.5,88.4 225.1,98.4 235,76 "/>
<rect x="332.7" y="66.1" transform="matrix(9.792963e-02 -0.9952 0.9952 9.792963e-02 225.1219 422.5829)" class="st2" width="25.9" height="42"/>
<linearGradient id="SVGID_21_" gradientUnits="userSpaceOnUse" x1="266.1971" y1="474.456" x2="264.8371" y2="566.946" gradientTransform="matrix(0.98 0.2 -0.2 0.98 195.7299 -504.35)">
	<stop  offset="0" style="stop-color:#FFFFFF;stop-opacity:0"/>
	<stop  offset="0.95" style="stop-color:#FFFFFF"/>
</linearGradient>
<polygon class="st22" points="365.3,102 323.5,97.9 326,72.1 368.7,76 "/>
<linearGradient id="SVGID_22_" gradientUnits="userSpaceOnUse" x1="530.4646" y1="-739.0172" x2="529.1046" y2="-646.5272" gradientTransform="matrix(0.8039 -0.5948 0.5948 0.8039 -679.4561 -465.114)">
	<stop  offset="0" style="stop-color:#FFFFFF;stop-opacity:0"/>
	<stop  offset="0.95" style="stop-color:#FFFFFF"/>
</linearGradient>
<polygon class="st23" points="326,72.1 344.9,95.5 368,76.7 "/>
<linearGradient id="SVGID_23_" gradientUnits="userSpaceOnUse" x1="331.0142" y1="496.5299" x2="329.1342" y2="582.1299" gradientTransform="matrix(1 0 0 1 0 -406)">
	<stop  offset="0" style="stop-color:#FFFFFF;stop-opacity:0"/>
	<stop  offset="0.39" style="stop-color:#FFFFFF"/>
</linearGradient>
<polygon class="st24" points="196.1,127.1 303.8,99.8 464.5,119 "/>
</svg>
